# xmcd CD database file generated by OrangeCD 5.2
#
# Track frame offsets:
#	150
#	2821
#	21355
#	43610
#	67136
#	75869
#	98814
#	121269
#	143504
#	167673
#	188537
#	207389
#	232434
#	258443
#	277994
#
# Disc length: 4035 seconds
#
# Revision: 0
# Processed by: cddbd v1.5.1PL0 Copyright (c) Steve Scherf et al.
# Submitted via: OrangeCD 5.2
#
DISCID=c90fc10f
DTITLE=Michelle Shocked - Deep Natural
DYEAR=2002
DGENRE=Blues
TTITLE0=Joy
TTITLE1=What Can I Say 
TTITLE2=Why Do I Get The Feeling
TTITLE3=Good News 
TTITLE4=Forgive To Forget 
TTITLE5=That's So Amazing 
TTITLE6=Peachfuzz 
TTITLE7=I Know What You Need 
TTITLE8=Can't Take My Joy 
TTITLE9=Little Billie 
TTITLE10=If Not Here 
TTITLE11=Moanin' Dove 
TTITLE12=House Burnin' Down
TTITLE13=Psalm 
TTITLE14=Go In Peace 
EXTD=
EXTT0=
EXTT1=
EXTT2=
EXTT3=
EXTT4=
EXTT5=
EXTT6=
EXTT7=
EXTT8=
EXTT9=
EXTT10=
EXTT11=
EXTT12=
EXTT13=
EXTT14=
PLAYORDER=
